<svg width="1200" height="360" viewBox="0 0 1200 360" fill="none" xmlns="http://www.w3.org/2000/svg" role="img" aria-labelledby="title desc">
  <title id="title">Hardware-aware robotics</title>
  <desc id="desc">A clean developer profile banner for robotics, automation, and data systems in real environments.</desc>
  <rect width="1200" height="360" fill="#0D1110"/>
  <path d="M0 300H1200" stroke="#26312D" stroke-width="1"/>
  <path d="M0 240H1200" stroke="#17201D" stroke-width="1"/>
  <path d="M0 180H1200" stroke="#17201D" stroke-width="1"/>
  <path d="M0 120H1200" stroke="#17201D" stroke-width="1"/>
  <path d="M0 60H1200" stroke="#17201D" stroke-width="1"/>
  <path d="M140 0V360" stroke="#17201D" stroke-width="1"/>
  <path d="M300 0V360" stroke="#17201D" stroke-width="1"/>
  <path d="M460 0V360" stroke="#17201D" stroke-width="1"/>
  <path d="M620 0V360" stroke="#17201D" stroke-width="1"/>
  <path d="M780 0V360" stroke="#17201D" stroke-width="1"/>
  <path d="M940 0V360" stroke="#17201D" stroke-width="1"/>
  <path d="M1100 0V360" stroke="#17201D" stroke-width="1"/>

  <path d="M82 278C154 238 225 244 300 224C382 202 450 206 536 184C611 165 655 142 708 112" stroke="#71F7C6" stroke-width="2.5" stroke-linecap="round"/>
  <path d="M82 278C154 238 225 244 300 224C382 202 450 206 536 184C611 165 655 142 708 112" stroke="#71F7C6" stroke-opacity=".22" stroke-width="12" stroke-linecap="round"/>
  <circle cx="82" cy="278" r="5" fill="#71F7C6"/>
  <circle cx="300" cy="224" r="5" fill="#71F7C6"/>
  <circle cx="536" cy="184" r="5" fill="#71F7C6"/>
  <circle cx="708" cy="112" r="5" fill="#71F7C6"/>

  <rect x="766" y="60" width="336" height="214" rx="10" fill="#111816" stroke="#2A3834"/>
  <rect x="790" y="92" width="92" height="10" rx="5" fill="#71F7C6"/>
  <rect x="790" y="123" width="248" height="8" rx="4" fill="#5E7570"/>
  <rect x="790" y="148" width="196" height="8" rx="4" fill="#445955"/>
  <rect x="790" y="184" width="260" height="1" fill="#2A3834"/>
  <rect x="790" y="216" width="48" height="8" rx="4" fill="#9FD4FF"/>
  <rect x="858" y="216" width="132" height="8" rx="4" fill="#5E7570"/>
  <rect x="790" y="244" width="72" height="8" rx="4" fill="#FFD37A"/>
  <rect x="884" y="244" width="174" height="8" rx="4" fill="#5E7570"/>

  <text x="72" y="116" fill="#F3F7F4" font-family="Inter, ui-sans-serif, system-ui, -apple-system, BlinkMacSystemFont, Segoe UI, sans-serif" font-size="49" font-weight="720" letter-spacing="0">Hardware-aware robotics</text>
  <text x="76" y="158" fill="#B9C8C3" font-family="Inter, ui-sans-serif, system-ui, -apple-system, BlinkMacSystemFont, Segoe UI, sans-serif" font-size="23" font-weight="520" letter-spacing="0">Automation / data workflows / field-ready validation</text>
  <text x="76" y="314" fill="#7E918B" font-family="Inter, ui-sans-serif, system-ui, -apple-system, BlinkMacSystemFont, Segoe UI, sans-serif" font-size="16" font-weight="520" letter-spacing="0">requirements -> rigs -> data -> gates -> deployment decisions</text>
</svg>
